<svg width="1373" height="630" viewBox="0 0 1373 630" fill="none" xmlns="http://www.w3.org/2000/svg">
<path d="M660.255 364.552V260.641H756.767V99.0237H660.255V0H500.059V364.511C500.059 510.891 619.209 629.998 765.642 629.998V469.86C707.545 469.9 660.255 422.628 660.255 364.552Z" fill="#3CCEF5"/>
<path d="M194.257 98.4922V235.466C86.939 236.617 0 324.221 0 431.788C0 540.054 88.1305 628.153 196.435 628.153C200.133 628.153 203.83 627.947 207.487 627.742V628.193H299.357H459.019V363.158C459.019 217.231 340.237 98.4922 194.257 98.4922ZM243.89 475.776C210.897 475.776 184.15 449.039 184.15 416.059C184.15 383.078 210.897 356.34 243.89 356.34C276.882 356.34 303.629 383.078 303.629 416.059C303.629 448.997 276.882 475.776 243.89 475.776Z" fill="#3CCEF5"/>
<path d="M1063.48 99.0254C917.05 99.0254 797.898 218.133 797.898 364.512C797.898 510.892 917.05 629.999 1063.48 629.999C1209.92 629.999 1329.06 510.892 1329.06 364.512C1329.06 218.133 1209.95 99.0254 1063.48 99.0254ZM1063.48 448.792C1016.93 448.792 979.213 411.087 979.213 364.554C979.213 318.02 1016.93 280.315 1063.48 280.315C1110.03 280.315 1147.75 318.02 1147.75 364.554C1147.8 411.087 1110.03 448.792 1063.48 448.792Z" fill="#3CCEF5"/>
</svg>
